<?xml version="1.0" encoding="utf-8"?>
<!-- Generator: Adobe Illustrator 17.1.0, SVG Export Plug-In . SVG Version: 6.00 Build 0)  -->
<!DOCTYPE svg PUBLIC "-//W3C//DTD SVG 1.1//EN" "http://www.w3.org/Graphics/SVG/1.1/DTD/svg11.dtd">
<svg version="1.1" id="Layer_1" xmlns="http://www.w3.org/2000/svg" xmlns:xlink="http://www.w3.org/1999/xlink" x="0px" y="0px"
	 viewBox="28.7 559.2 595.3 658.2" style="enable-background:new 28.7 559.2 595.3 658.2;" xml:space="preserve">
<path style="fill:#72F084;" d="M266.9,1016.1c-4.1,0-8.3-1.3-11.9-3.9c-9.2-6.6-11.3-19.4-4.7-28.7l55.6-77.8V796.9
	c0-11.3,9.2-20.6,20.5-20.6c11.3,0,20.5,9.2,20.5,20.6v115.4c0,4.3-1.3,8.5-3.8,12l-59.5,83.2
	C279.5,1013.1,273.2,1016.1,266.9,1016.1z"/>
<path style="fill:#72F084;" d="M49.2,719.4c-4.1,0-8.3-1.2-11.9-3.8c-9.2-6.6-11.3-19.4-4.8-28.7C78.8,622,146.1,576.8,222.1,559.7
	c11-2.5,22,4.5,24.5,15.6c2.5,11.1-4.5,22.1-15.5,24.6c-66.1,14.8-124.8,54.2-165.2,111C61.9,716.5,55.5,719.4,49.2,719.4z"/>
<path style="fill:#72F084;" d="M603.5,719.4c-6.4,0-12.7-3-16.7-8.6c-40.4-56.7-99-96.1-165.2-110.9c-11.1-2.5-18-13.5-15.5-24.6
	c2.5-11.1,13.3-18,24.5-15.6c76,17,143.3,62.2,189.6,127.2c6.6,9.2,4.5,22.1-4.8,28.7C611.7,718.2,607.6,719.4,603.5,719.4z"/>
<path style="fill:#72F084;" d="M326.3,1180.4c-148,0-268.5-120.8-268.5-269.3s120.4-269.3,268.5-269.3s268.5,120.8,268.5,269.3
	S474.4,1180.4,326.3,1180.4z M326.3,683.1c-125.4,0-227.5,102.4-227.5,228.2s102.1,228.2,227.5,228.2s227.5-102.4,227.5-228.2
	C553.8,785.3,451.8,683.1,326.3,683.1z"/>
<path style="fill:#72F084;" d="M125.6,1217.4c-3.4,0-6.7-0.8-9.9-2.6c-9.9-5.5-13.5-18-8.1-27.9l48.8-88.9c5.4-9.9,18-13.5,27.8-8.1
	c9.9,5.5,13.5,18,8.1,27.9l-48.8,88.9C139.8,1213.5,132.8,1217.4,125.6,1217.4z"/>
<path style="fill:#72F084;" d="M527.1,1217.4c-7.2,0-14.2-3.9-18-10.6l-48.8-88.9c-5.5-9.9-1.9-22.4,8.1-27.9
	c9.9-5.5,22.4-1.9,27.8,8.1L545,1187c5.5,9.9,1.8,22.5-8.1,27.9C533.8,1216.5,530.4,1217.4,527.1,1217.4z"/>
</svg>
