<?xml version="1.0" encoding="utf-8"?>
<!-- Generator: Adobe Illustrator 17.1.0, SVG Export Plug-In . SVG Version: 6.00 Build 0)  -->
<!DOCTYPE svg PUBLIC "-//W3C//DTD SVG 1.1//EN" "http://www.w3.org/Graphics/SVG/1.1/DTD/svg11.dtd">
<svg version="1.1" id="Layer_1" xmlns="http://www.w3.org/2000/svg" xmlns:xlink="http://www.w3.org/1999/xlink" x="0px" y="0px"
	 viewBox="109.5 809.3 595.2 598.9" style="enable-background:new 109.5 809.3 595.2 598.9;" xml:space="preserve">
<g>
	<g>
		<g>
			<path style="fill:#FFFFFF;" d="M653.6,866.1h-40.5v67.8c0,8.6-6.8,15.6-15,15.6c-8.3,0-15-7-15-15.6v-67.8h-17.3v67.8
				c0,8.6-6.8,15.6-15,15.6c-8.2,0-15-7-15-15.6v-67.8H278.3v67.8c0,8.6-6.8,15.6-15,15.6c-8.3,0-15-7-15-15.6v-67.8h-18v67.8
				c0,8.6-6.8,15.6-15,15.6s-15-7-15-15.6v-67.8h-18h-21.8c-28.5,0-51,24.2-51,53v436.1c0,29.6,23.3,53,51,53h493.2
				c28.5,0,51-24.2,51-53V919.1C704.7,889.5,681.4,866.1,653.6,866.1z"/>
		</g>
	</g>
	<g>
		<g>
			<path style="fill:#FFFFFF;" d="M613.1,824.9c0-8.6-6.8-15.6-15-15.6c-8.3,0-15,7-15,15.6v41.3h30V824.9L613.1,824.9z"/>
		</g>
	</g>
	<g>
		<g>
			<path style="fill:#FFFFFF;" d="M565.8,824.9c0-8.6-6.8-15.6-15-15.6c-8.2,0-15,7-15,15.6v41.3h30V824.9L565.8,824.9z"/>
		</g>
	</g>
	<g>
		<g>
			<path style="fill:#FFFFFF;" d="M278.3,824.9c0-8.6-6.8-15.6-15-15.6c-8.3,0-15,7-15,15.6v41.3h30V824.9L278.3,824.9z"/>
		</g>
	</g>
	<g>
		<g>
			<path style="fill:#FFFFFF;" d="M230.3,824.9c0-8.6-6.8-15.6-15-15.6s-15,7-15,15.6v41.3h30V824.9L230.3,824.9z"/>
		</g>
	</g>
</g>
</svg>
