<?xml version="1.0" encoding="utf-8"?>
<!-- Generator: Adobe Illustrator 15.0.0, SVG Export Plug-In . SVG Version: 6.00 Build 0)  -->
<!DOCTYPE svg PUBLIC "-//W3C//DTD SVG 1.1//EN" "http://www.w3.org/Graphics/SVG/1.1/DTD/svg11.dtd">
<svg version="1.1" id="Layer_1" xmlns="http://www.w3.org/2000/svg" xmlns:xlink="http://www.w3.org/1999/xlink" x="0px" y="0px"
	 width="116.22px" height="110.55px" viewBox="0 0 116.22 110.55" enable-background="new 0 0 116.22 110.55" xml:space="preserve">
<path fill-rule="evenodd" clip-rule="evenodd" fill="#ED6E31" d="M27,105c0,1-1,1-1,0H27z M106,91c0,0-1,1-1,0H106z M24,90
	c1-1,2-1,3-1C26,90,25,90,24,90z M32,86c0,1-1,1-1,0H32z M5,78c-1,1-2,0-2-1C3,77,4,77,5,78z M93,73c-2-1,0-2,1-2C94,71,94,72,93,73
	z M19,69h-3v-3C17,67,19,68,19,69z M101,67c-1-1,0-2,1-3C102,65,102,66,101,67z M11,62c-1-1-2-3-2-4C10,58,11,60,11,62z M107,60
	c0-1,0-3,1-3C108,58,108,59,107,60z M56,60c1,0,3-2,5-4c0,1,1,2,1,4c0,8-9,10-13,10c-7,0-11-4-11-10c0-3,2-8,8-8C49,52,53,56,56,60z
	 M111,52c0-1,0-2,1-2C112,50,112,51,111,52z M6,52c-1-1-1-3,0-3V52z M112,44c0,0,0-1,1-2C113,43,113,44,112,44z M4,43v-3
	C5,41,5,42,4,43z M71,42c0,3-3,7-5,7c-3,0-5-4-5-6c0-3,2-6,4-6C68,37,71,40,71,42z M47,40c0,4-3,6-5,6s-4-3-4-6c0-2,1-5,5-5
	S47,38,47,40z M5,34c0-1,0-2,1-2C6,32,6,33,5,34z M102,6c0,0,0-1,1-2C103,5,103,6,102,6z M93,35c0,7-4,17-6,22c0,0,0,1,1,3
	c11-6,15-18,15-25c0-2-7-25-7-27s1-7,7-8c2,4,0,7,1,10s5,6,6,10c3,6,5,19,5,21c0,15-8,30-28,38c3,6,9,9,14,9c2,0,7-2,10-3
	c0,0,1,1,2,1c-3,8-10,11-17,11c-3,0-9-1-12-4c-2-1-4-4-8-6c0,1-1,0-1,3c0,9,14,14,14,15c0,3-6,5-7,5c-11,0-16-19-23-19
	c-6,0-17,18-29,18c-3,0-5-1-8-4c1-6,12-5,17-13v-4c0,0,0-1-2-1c-3,0-13,5-16,5c-10,0-9-7-20-14l-1-3h5c5,3,11,7,14,7c2,0,5-1,8-4
	c0,0,0-1-1-2C8,70,2,52,2,41C2,22,7,27,12,2h3c3,2,3,7,3,10s-4,21-4,24c0,10,4,19,17,27c0,0,1,0,1-2c0-3-5-7-6-10c-2-4-2-10-2-13
	C24,21,34,0,57,0S93,17,93,35z"/>
<path fill-rule="evenodd" clip-rule="evenodd" fill="#FCD4B6" d="M52,62c0,4-4,4-5,4c-4,0-5-4-5-5c0-3,2-5,4-5C50,56,52,59,52,62z
	 M57,63c0,4-5,8-9,8c-6,0-10-5-10-10c0-7,3-9,8-9C53,52,57,59,57,63z"/>
<path fill-rule="evenodd" clip-rule="evenodd" fill="#FDD5BA" d="M82,107c1-1,2-1,3,0C84,108,83,108,82,107z M28,105c-1,2-3,1-3,0
	H28z M102,95h-3l2-2C101,93,102,94,102,95z M107,93c-2-1-1-2,0-3C108,91,108,91,107,93z M30,88c0-1,2-2,4-2C33,87,31,88,30,88z
	 M8,80c0,0-1,1-1,0H8z M5,79c-1,0-2-2-1-2S5,78,5,79z M90,73c1-1,3-2,5-2C94,71,93,74,90,73z M18,66c0,1,1,3,1,4c-1,0-3-2-4-4H18z
	 M100,68c-1-2,1-4,3-3L100,68z M107,61c-1-1,0-3,1-4L107,61z M12,62c-1,0-2-1-3-2c0,0,0-3,2-3C11,58,12,60,12,62z M110,52
	c1-1,1-2,2-2C112,51,111,52,110,52z M6,52c-1-1-1-3,0-3C7,50,7,51,6,52z M112,45c0-1,0-3,1-3C113,43,113,44,112,45z M4,43
	c0,0,0-3,1-3L4,43z M112,38l1-3C113,36,113,38,112,38z M5,31c0,0,1,0,0,4C5,34,4,33,5,31z M7,27c-1,0,0-2,0-3C8,25,8,25,7,27z M12,8
	c0-1,0-3,1-3C13,6,13,8,12,8z M102,7c0-1,0-3,1-3C103,5,103,7,102,7z"/>
<path fill-rule="evenodd" clip-rule="evenodd" fill="#855D53" d="M62,63c-2,2-8,7-9,8c7-5-1-11,9-14V63z"/>
<path fill-rule="evenodd" clip-rule="evenodd" fill="#855D53" d="M62,60c0,4-5,8-9,10c4-5,4-10,8-14C61,57,62,58,62,60z"/>
<path fill-rule="evenodd" clip-rule="evenodd" fill="#302F2F" d="M52,61c0,4-4,6-5,6c-4,0-5-5-5-6c0-4,1-5,5-5S52,59,52,61z M71,43
	c0,4-4,6-6,6c-4,0-4-6-4-6c0-3,1-6,5-6C69,37,71,40,71,43z M48,40c0,5-4,6-6,6c-4,0-4-4-4-5c0-3,1-6,5-6C46,35,48,38,48,40z"/>
</svg>
